<mxfile host="app.diagrams.net" modified="2023-07-26T07:21:10.214Z" agent="Mozilla/5.0 (Windows NT 10.0; Win64; x64) AppleWebKit/537.36 (KHTML, like Gecko) Chrome/110.0.0.0 Safari/537.36" version="21.6.2" etag="u2Kx-MvyUX5HGSyQW88o" type="github">
  <diagram name="Page-1" id="-8qAUDSCcn36FpitHiww">
    <mxGraphModel>
      <root>
        <mxCell id="0" />
        <mxCell id="1" parent="0" />
      </root>
    </mxGraphModel>
  </diagram>
</mxfile>
